# xmcd CD database file
#
# Track frame offsets:
#	150
#	17723
#	32470
#	54921
#	74882
#	100512
#	110553
#	129576
#	147118
#	166574
#	175465
#	189228
#
# Disc length: 2893 seconds
#
# Revision: 0
# Processed by: cddbd v1.5.2PL0 Copyright (c) Steve Scherf et al.
# Submitted via: jetAudio 7
#
DISCID=990b4b0c
DTITLE=GÖG - WOBADAA
DYEAR=1900
DGENRE=World Music
TTITLE0=Onward 1
TTITLE1=Black and White
TTITLE2=Nordlicht
TTITLE3=Yellowphone
TTITLE4=G# (Gis)
TTITLE5=Drum ¬ Drone
TTITLE6=Running Rabbit
TTITLE7=Colors
TTITLE8=Territory Day
TTITLE9=Brothers Blues
TTITLE10=4 Seven
TTITLE11=Sunrise
EXTD=
EXTT0=
EXTT1=
EXTT2=
EXTT3=
EXTT4=
EXTT5=
EXTT6=
EXTT7=
EXTT8=
EXTT9=
EXTT10=
EXTT11=
PLAYORDER=
